<mxfile host="app.diagrams.net" modified="2023-08-31T16:22:29.557Z" agent="Mozilla/5.0 (Windows NT 10.0; Win64; x64) AppleWebKit/537.36 (KHTML, like Gecko) Chrome/116.0.0.0 Safari/537.36" etag="5btoSnzWIso_vDxxqKbN" version="21.6.9" type="github">
  <diagram name="Page-1" id="IFXqfXMcPQ0wQR_yjVzQ">
    <mxGraphModel dx="819" dy="453" grid="0" gridSize="10" guides="1" tooltips="1" connect="1" arrows="1" fold="1" page="1" pageScale="1" pageWidth="850" pageHeight="1100" math="0" shadow="0">
      <root>
        <mxCell id="0" />
        <mxCell id="1" parent="0" />
        <mxCell id="9_Y3KxAVrDjl2RLM-emm-1" value="&lt;b&gt;&lt;i&gt;&lt;u&gt;Class&lt;/u&gt;&lt;/i&gt;&lt;/b&gt;" style="swimlane;fontStyle=0;childLayout=stackLayout;horizontal=1;startSize=30;horizontalStack=0;resizeParent=1;resizeParentMax=0;resizeLast=0;collapsible=1;marginBottom=0;whiteSpace=wrap;html=1;" vertex="1" parent="1">
          <mxGeometry x="325" y="215" width="244" height="120" as="geometry" />
        </mxCell>
        <mxCell id="9_Y3KxAVrDjl2RLM-emm-2" value="&lt;u&gt;&lt;b&gt;Attribute 1&lt;/b&gt;&lt;/u&gt;&amp;nbsp;(with underline:- Vector/Matrix)" style="text;strokeColor=none;fillColor=none;align=left;verticalAlign=middle;spacingLeft=4;spacingRight=4;overflow=hidden;points=[[0,0.5],[1,0.5]];portConstraint=eastwest;rotatable=0;whiteSpace=wrap;html=1;" vertex="1" parent="9_Y3KxAVrDjl2RLM-emm-1">
          <mxGeometry y="30" width="244" height="30" as="geometry" />
        </mxCell>
        <mxCell id="9_Y3KxAVrDjl2RLM-emm-3" value="&lt;b&gt;Attribute 2 &lt;/b&gt;(without undeline: - Scalar)" style="text;strokeColor=none;fillColor=none;align=left;verticalAlign=middle;spacingLeft=4;spacingRight=4;overflow=hidden;points=[[0,0.5],[1,0.5]];portConstraint=eastwest;rotatable=0;whiteSpace=wrap;html=1;" vertex="1" parent="9_Y3KxAVrDjl2RLM-emm-1">
          <mxGeometry y="60" width="244" height="30" as="geometry" />
        </mxCell>
        <mxCell id="9_Y3KxAVrDjl2RLM-emm-4" value="Methods()" style="text;strokeColor=none;fillColor=none;align=left;verticalAlign=middle;spacingLeft=4;spacingRight=4;overflow=hidden;points=[[0,0.5],[1,0.5]];portConstraint=eastwest;rotatable=0;whiteSpace=wrap;html=1;" vertex="1" parent="9_Y3KxAVrDjl2RLM-emm-1">
          <mxGeometry y="90" width="244" height="30" as="geometry" />
        </mxCell>
        <mxCell id="9_Y3KxAVrDjl2RLM-emm-6" value="" style="endArrow=none;html=1;rounded=0;exitX=-0.001;exitY=0.067;exitDx=0;exitDy=0;exitPerimeter=0;entryX=0.993;entryY=0.067;entryDx=0;entryDy=0;entryPerimeter=0;" edge="1" parent="9_Y3KxAVrDjl2RLM-emm-1" source="9_Y3KxAVrDjl2RLM-emm-4" target="9_Y3KxAVrDjl2RLM-emm-4">
          <mxGeometry width="50" height="50" relative="1" as="geometry">
            <mxPoint x="74" y="217" as="sourcePoint" />
            <mxPoint x="152" y="93" as="targetPoint" />
          </mxGeometry>
        </mxCell>
        <mxCell id="9_Y3KxAVrDjl2RLM-emm-8" value="Nomenclature" style="text;html=1;strokeColor=none;fillColor=none;align=center;verticalAlign=middle;whiteSpace=wrap;rounded=0;" vertex="1" parent="1">
          <mxGeometry x="281" y="177" width="60" height="30" as="geometry" />
        </mxCell>
      </root>
    </mxGraphModel>
  </diagram>
</mxfile>
